<svg width="30" height="28" viewBox="0 0 30 28" fill="none" xmlns="http://www.w3.org/2000/svg">
<path d="M21.66 0.653015C18.945 0.653015 16.515 1.97301 15 3.99801C14.2262 2.96124 13.2214 2.1191 12.0653 1.53846C10.9092 0.957812 9.6337 0.654643 8.34 0.653015C3.735 0.653015 0 4.40302 0 9.03802C0 10.823 0.285 12.473 0.78 14.003C3.15 21.503 10.455 25.988 14.07 27.218C14.58 27.398 15.42 27.398 15.93 27.218C19.545 25.988 26.85 21.503 29.22 14.003C29.715 12.473 30 10.823 30 9.03802C30 4.40302 26.265 0.653015 21.66 0.653015V0.653015Z" fill="black"/>
</svg>
